# xmcd
#
# Track frame offsets:
#	150
#	22337
#	47492
#	66973
#	88751
#	112589
#	141616
#	168504
#	186965
#	206947
#	224591
#	244654
#	264458
#	285478
#
# Disc length: 4097 seconds
#
# Revision: 1
# Processed by: cddbd v1.5.2PL0 Copyright (c) Steve Scherf et al.
# Submitted via: EZCDAudioConverter 1.3.4.1
#
DISCID=dc0fff0e
DTITLE=Ali Ollie Woodson - Right Here All Along
DYEAR=2001
DGENRE=R&B
TTITLE0=Turn Out The Stars
TTITLE1=Angel
TTITLE2=Drama In The Bedroom
TTITLE3=Power Of A Woman
TTITLE4=Whatever It Takes
TTITLE5=Will You Still Love Me Tomorrow
TTITLE6=Deeper Love
TTITLE7=Get Next To You
TTITLE8=Love's Not All
TTITLE9=Believe That
TTITLE10=Never Give Up
TTITLE11=Down The Line
TTITLE12=Love Is Slipping Away
TTITLE13=Right Here All Along
EXTD=
EXTT0=
EXTT1=
EXTT2=
EXTT3=
EXTT4=
EXTT5=
EXTT6=
EXTT7=
EXTT8=
EXTT9=
EXTT10=
EXTT11=
EXTT12=
EXTT13=
PLAYORDER=
